<svg xmlns="http://www.w3.org/2000/svg" width="1080" height="1080" viewBox="0 0 1080 1080">
  <defs>
    <style>
      @import url('https://fonts.googleapis.com/css2?family=Inter+Tight:wght@400;500;600;700;800;900&amp;family=JetBrains+Mono:wght@400;500;700&amp;family=Newsreader:ital,opsz,wght@0,6..72,400;0,6..72,500;0,6..72,600;1,6..72,400;1,6..72,500&amp;display=swap');
    </style>
  </defs>

  <!-- SINGLE CONCEPT SLIDE — REFINED -->
  <!-- Design intent: One idea, stated cleanly. Content cluster sits at optical center. -->
  <!-- The headline DOMINATES. Body supports. Emphasis underlines the key phrase. -->
  <!-- Bottom half breathes — the whitespace validates the confidence of the statement. -->

  <!-- Background -->
  <rect width="1080" height="1080" fill="#F0EDEA"/>

  <!-- Ruled lines (every 32px from y=64, 0.5px, #D0CCC8, opacity 0.35) -->
  <g opacity="0.35">
    <line x1="0" y1="64" x2="1080" y2="64" stroke="#D0CCC8" stroke-width="0.5"/>
    <line x1="0" y1="96" x2="1080" y2="96" stroke="#D0CCC8" stroke-width="0.5"/>
    <line x1="0" y1="128" x2="1080" y2="128" stroke="#D0CCC8" stroke-width="0.5"/>
    <line x1="0" y1="160" x2="1080" y2="160" stroke="#D0CCC8" stroke-width="0.5"/>
    <line x1="0" y1="192" x2="1080" y2="192" stroke="#D0CCC8" stroke-width="0.5"/>
    <line x1="0" y1="224" x2="1080" y2="224" stroke="#D0CCC8" stroke-width="0.5"/>
    <line x1="0" y1="256" x2="1080" y2="256" stroke="#D0CCC8" stroke-width="0.5"/>
    <line x1="0" y1="288" x2="1080" y2="288" stroke="#D0CCC8" stroke-width="0.5"/>
    <line x1="0" y1="320" x2="1080" y2="320" stroke="#D0CCC8" stroke-width="0.5"/>
    <line x1="0" y1="352" x2="1080" y2="352" stroke="#D0CCC8" stroke-width="0.5"/>
    <line x1="0" y1="384" x2="1080" y2="384" stroke="#D0CCC8" stroke-width="0.5"/>
    <line x1="0" y1="416" x2="1080" y2="416" stroke="#D0CCC8" stroke-width="0.5"/>
    <line x1="0" y1="448" x2="1080" y2="448" stroke="#D0CCC8" stroke-width="0.5"/>
    <line x1="0" y1="480" x2="1080" y2="480" stroke="#D0CCC8" stroke-width="0.5"/>
    <line x1="0" y1="512" x2="1080" y2="512" stroke="#D0CCC8" stroke-width="0.5"/>
    <line x1="0" y1="544" x2="1080" y2="544" stroke="#D0CCC8" stroke-width="0.5"/>
    <line x1="0" y1="576" x2="1080" y2="576" stroke="#D0CCC8" stroke-width="0.5"/>
    <line x1="0" y1="608" x2="1080" y2="608" stroke="#D0CCC8" stroke-width="0.5"/>
    <line x1="0" y1="640" x2="1080" y2="640" stroke="#D0CCC8" stroke-width="0.5"/>
    <line x1="0" y1="672" x2="1080" y2="672" stroke="#D0CCC8" stroke-width="0.5"/>
    <line x1="0" y1="704" x2="1080" y2="704" stroke="#D0CCC8" stroke-width="0.5"/>
    <line x1="0" y1="736" x2="1080" y2="736" stroke="#D0CCC8" stroke-width="0.5"/>
    <line x1="0" y1="768" x2="1080" y2="768" stroke="#D0CCC8" stroke-width="0.5"/>
    <line x1="0" y1="800" x2="1080" y2="800" stroke="#D0CCC8" stroke-width="0.5"/>
    <line x1="0" y1="832" x2="1080" y2="832" stroke="#D0CCC8" stroke-width="0.5"/>
    <line x1="0" y1="864" x2="1080" y2="864" stroke="#D0CCC8" stroke-width="0.5"/>
    <line x1="0" y1="896" x2="1080" y2="896" stroke="#D0CCC8" stroke-width="0.5"/>
    <line x1="0" y1="928" x2="1080" y2="928" stroke="#D0CCC8" stroke-width="0.5"/>
    <line x1="0" y1="960" x2="1080" y2="960" stroke="#D0CCC8" stroke-width="0.5"/>
    <line x1="0" y1="992" x2="1080" y2="992" stroke="#D0CCC8" stroke-width="0.5"/>
    <line x1="0" y1="1024" x2="1080" y2="1024" stroke="#D0CCC8" stroke-width="0.5"/>
    <line x1="0" y1="1056" x2="1080" y2="1056" stroke="#D0CCC8" stroke-width="0.5"/>
  </g>

  <!-- Red margin line at 144px, opacity 0.7 -->
  <line x1="144" y1="0" x2="144" y2="1080" stroke="#C83232" stroke-width="2" opacity="0.7"/>

  <!-- Slide number: left margin column -->
  <text x="64" y="80" font-family="'JetBrains Mono', monospace" font-weight="400" font-size="16" fill="#D0CCC8">02</text>

  <!-- CONTENT CLUSTER — optically centered -->
  <!-- METHOD: position at top: 43%, transform: translateY(-43%) -->
  <!-- This places the cluster at the eye's natural resting point (~464px) -->
  <!-- and adjusts upward by 43% of the cluster's own height, so it adapts -->
  <!-- to varying content lengths (short headline vs 2-line headline + body). -->
  <!-- Matches the centering used by quote-slide and section-divider-slide. -->
  <!-- DO NOT use a fixed pixel top value — that breaks with different content. -->

  <!-- Headline: Inter Tight 700, 68px -->
  <text x="176" y="390" font-family="'Inter Tight', sans-serif" font-weight="700" font-size="68" fill="#2A2A2A" letter-spacing="-0.02em">
    <tspan x="176" dy="0">Constraints Are</tspan>
    <tspan x="176" dy="75">Creative Fuel</tspan>
  </text>

  <!-- Body: Newsreader 500, 32px, 24px below headline -->
  <text font-family="'Newsreader', Georgia, serif" font-weight="500" font-size="32" fill="#2A2A2A">
    <tspan x="176" y="517">When you remove options, you force</tspan>
    <tspan x="176" dy="45">clarity. The best work happens inside</tspan>
    <tspan x="176" dy="45"><tspan font-weight="700">tight margins</tspan>, not open fields.</tspan>
  </text>

  <!-- Red underline under "tight margins" emphasis -->
  <!-- "tight margins" starts at x=176, width approx 244px at 32px Newsreader bold -->
  <line x1="176" y1="611" x2="420" y2="611" stroke="#C83232" stroke-width="2"/>
</svg>